<?xml version="1.0" encoding="UTF-8"?>
<svg width="29px" height="19px" viewBox="0 0 29 19" version="1.1" xmlns="http://www.w3.org/2000/svg" xmlns:xlink="http://www.w3.org/1999/xlink">
    <!-- Generator: Sketch 50.2 (55047) - http://www.bohemiancoding.com/sketch -->
    <title>Settings - HD</title>
    <desc>Created with Sketch.</desc>
    <defs>
        <path d="M3.65552671,12.6458986 C3.39753063,12.3688335 3.1640556,12.0672557 2.95870505,11.7448852 L0.631450878,11.3862451 C0.299275806,10.6158184 0.0815422073,9.78321966 -3.61068814e-13,8.91046949 L2.01881298,7.49388892 C2.06816928,7.10628837 2.15193833,6.72987703 2.26684895,6.36803183 L1.0072679,4.12319219 C1.41010106,3.40509105 1.91774993,2.75514415 2.50915057,2.1946776 L4.90069237,2.96004421 C5.21868052,2.76228151 5.55571673,2.59384351 5.90828806,2.45835673 L6.80528127,0.0891234347 C7.19467775,0.0304180065 7.59319578,0 7.99873098,0 C8.41974847,0 8.83320277,0.0327849038 9.23673915,0.0959706713 L10.13114,2.45835673 C10.4837113,2.59384351 10.8207475,2.76228151 11.1387357,2.96004421 L13.4988913,2.20472215 C14.0960325,2.77266743 14.6073699,3.43201785 15.0111098,4.16070842 L13.7725791,6.36803183 C13.8874897,6.72987703 13.9712588,7.10628837 14.0206151,7.49388892 L16,8.88280322 C15.9202704,9.76824486 15.7003948,10.6126777 15.3630202,11.3931732 L13.080723,11.7448852 C12.8753725,12.0672557 12.6418974,12.3688335 12.3839013,12.6458986 L12.5463589,14.8421148 C11.8075461,15.3565661 10.9794994,15.7491332 10.0905258,15.9911567 L8.57818687,14.5384344 C8.39428472,14.5558019 8.20800339,14.5646772 8.01971403,14.5646772 C7.83142466,14.5646772 7.64514333,14.5558019 7.46124119,14.5384344 L5.93969606,16 C5.0543066,15.7630347 4.22880796,15.3768892 3.49102599,14.8697357 L3.65552671,12.6458986 Z M8.01971403,11.621126 C9.92149486,11.621126 11.4631928,10.0602394 11.4631928,8.13478819 C11.4631928,6.20933699 9.92149486,4.6484504 8.01971403,4.6484504 C6.11793319,4.6484504 4.57623522,6.20933699 4.57623522,8.13478819 C4.57623522,10.0602394 6.11793319,11.621126 8.01971403,11.621126 Z" id="path-1"></path>
    </defs>
    <g id="Video-player" stroke="none" stroke-width="1" fill="none" fill-rule="evenodd">
        <g id="Thumbnail-missing---comments-open" transform="translate(-778.000000, -621.000000)">
            <g id="video-controls/black" transform="translate(16.000000, 600.000000)">
                <g id="Settings---HD" transform="translate(754.000000, 16.000000)">
                    <g id="Icons-/Control/settings" opacity="0.56">
                        <g id="toolbar/icons/select" transform="translate(8.000000, 8.000000)">
                            <mask id="mask-2" fill="white">
                                <use xlink:href="#path-1"></use>
                            </mask>
                            <use id="Combined-Shape" fill="#0070E0" xlink:href="#path-1"></use>
                            <g id="Fill-Color/White" mask="url(#mask-2)" fill="#FFFFFF">
                                <g transform="translate(-8.000000, -6.000000)" id="Fill">
                                    <rect x="0" y="0" width="32" height="28"></rect>
                                </g>
                            </g>
                        </g>
                    </g>
                    <g id="HD-tag" transform="translate(18.000000, 6.000000)">
                        <rect id="Rectangle-2-Copy" stroke="#313132" fill="#A4A4A4" x="-0.5" y="-0.5" width="19" height="11" rx="2"></rect>
                        <text id="HD-Copy-4" font-family="AtlasGrotesk-Black, Atlas Grotesk" font-size="8" font-weight="700" fill="#313132">
                            <tspan x="2.772" y="8">HD</tspan>
                        </text>
                    </g>
                </g>
            </g>
        </g>
    </g>
</svg>
